<svg width="126" height="36" viewBox="0 0 126 36" fill="none" xmlns="http://www.w3.org/2000/svg">
<rect width="126" height="36" rx="8" fill="url(#paint0_linear_213_171)"/>
<path d="M22.256 23.144C21.168 23.144 20.2133 22.9093 19.392 22.44C18.5813 21.9707 17.9573 21.2987 17.52 20.424C17.0827 19.5493 16.864 18.5253 16.864 17.352C16.864 16.1787 17.0827 15.16 17.52 14.296C17.9573 13.4213 18.5813 12.7493 19.392 12.28C20.2133 11.8107 21.168 11.576 22.256 11.576C22.96 11.576 23.6213 11.6827 24.24 11.896C24.8587 12.0987 25.408 12.3973 25.888 12.792C26.0267 12.8987 26.1227 13.0107 26.176 13.128C26.2293 13.2453 26.256 13.3893 26.256 13.56C26.256 13.7947 26.192 13.992 26.064 14.152C25.936 14.312 25.7813 14.392 25.6 14.392C25.3867 14.392 25.168 14.3173 24.944 14.168C24.4853 13.8267 24.0587 13.592 23.664 13.464C23.2693 13.3253 22.832 13.256 22.352 13.256C21.2427 13.256 20.4 13.6027 19.824 14.296C19.2587 14.9893 18.976 16.008 18.976 17.352C18.976 18.7067 19.2587 19.7307 19.824 20.424C20.4 21.1173 21.2427 21.464 22.352 21.464C22.8107 21.464 23.232 21.3947 23.616 21.256C24.0107 21.1173 24.4533 20.8827 24.944 20.552C25.0507 20.488 25.1573 20.4347 25.264 20.392C25.3707 20.3493 25.4827 20.328 25.6 20.328C25.7813 20.328 25.936 20.408 26.064 20.568C26.192 20.728 26.256 20.9253 26.256 21.16C26.256 21.32 26.2293 21.464 26.176 21.592C26.1227 21.7093 26.0267 21.8213 25.888 21.928C25.408 22.3227 24.8587 22.6267 24.24 22.84C23.6213 23.0427 22.96 23.144 22.256 23.144ZM32.4598 14.984C34.2944 14.984 35.2118 16.056 35.2118 18.2V22.136C35.2118 22.4347 35.1211 22.6693 34.9398 22.84C34.7691 23.0107 34.5291 23.096 34.2198 23.096C33.9104 23.096 33.6651 23.0107 33.4838 22.84C33.3024 22.6693 33.2118 22.4347 33.2118 22.136V18.2C33.2118 17.6347 33.0944 17.224 32.8598 16.968C32.6358 16.7013 32.2784 16.568 31.7878 16.568C31.2118 16.568 30.7478 16.7493 30.3958 17.112C30.0544 17.4747 29.8838 17.96 29.8838 18.568V22.136C29.8838 22.4347 29.7931 22.6693 29.6118 22.84C29.4304 23.0107 29.1851 23.096 28.8758 23.096C28.5664 23.096 28.3211 23.0107 28.1398 22.84C27.9691 22.6693 27.8838 22.4347 27.8838 22.136V12.568C27.8838 12.2907 27.9744 12.0667 28.1558 11.896C28.3478 11.7253 28.5931 11.64 28.8918 11.64C29.1904 11.64 29.4304 11.72 29.6118 11.88C29.7931 12.04 29.8838 12.2587 29.8838 12.536V16.264C30.1504 15.848 30.5024 15.5333 30.9398 15.32C31.3878 15.096 31.8944 14.984 32.4598 14.984ZM43.4351 20.856C43.6165 20.856 43.7605 20.9253 43.8671 21.064C43.9845 21.2027 44.0431 21.3893 44.0431 21.624C44.0431 21.9547 43.8458 22.232 43.4511 22.456C43.0885 22.6587 42.6778 22.824 42.2191 22.952C41.7605 23.0693 41.3231 23.128 40.9071 23.128C39.6485 23.128 38.6511 22.7653 37.9151 22.04C37.1791 21.3147 36.8111 20.3227 36.8111 19.064C36.8111 18.264 36.9711 17.5547 37.2911 16.936C37.6111 16.3173 38.0591 15.8373 38.6351 15.496C39.2218 15.1547 39.8831 14.984 40.6191 14.984C41.3231 14.984 41.9365 15.1387 42.4591 15.448C42.9818 15.7573 43.3871 16.1947 43.6751 16.76C43.9631 17.3253 44.1071 17.992 44.1071 18.76C44.1071 19.2187 43.9045 19.448 43.4991 19.448H38.7791C38.8431 20.184 39.0511 20.728 39.4031 21.08C39.7551 21.4213 40.2671 21.592 40.9391 21.592C41.2805 21.592 41.5791 21.5493 41.8351 21.464C42.1018 21.3787 42.4005 21.2613 42.7311 21.112C43.0511 20.9413 43.2858 20.856 43.4351 20.856ZM40.6671 16.392C40.1231 16.392 39.6858 16.5627 39.3551 16.904C39.0351 17.2453 38.8431 17.736 38.7791 18.376H42.3951C42.3738 17.7253 42.2138 17.2347 41.9151 16.904C41.6165 16.5627 41.2005 16.392 40.6671 16.392ZM49.2151 23.128C48.4365 23.128 47.7485 22.9627 47.1511 22.632C46.5645 22.3013 46.1111 21.832 45.7911 21.224C45.4711 20.616 45.3111 19.9067 45.3111 19.096C45.3111 18.2853 45.4765 17.5707 45.8071 16.952C46.1485 16.3227 46.6231 15.8373 47.2311 15.496C47.8391 15.1547 48.5378 14.984 49.3271 14.984C49.7431 14.984 50.1591 15.0427 50.5751 15.16C51.0018 15.2773 51.3751 15.4373 51.6951 15.64C52.0365 15.864 52.2071 16.1467 52.2071 16.488C52.2071 16.7227 52.1485 16.9147 52.0311 17.064C51.9245 17.2027 51.7805 17.272 51.5991 17.272C51.4818 17.272 51.3591 17.2453 51.2311 17.192C51.1031 17.1387 50.9751 17.0747 50.8471 17C50.6125 16.8613 50.3885 16.7547 50.1751 16.68C49.9618 16.5947 49.7165 16.552 49.4391 16.552C48.7778 16.552 48.2658 16.7707 47.9031 17.208C47.5511 17.6347 47.3751 18.2533 47.3751 19.064C47.3751 19.864 47.5511 20.4827 47.9031 20.92C48.2658 21.3467 48.7778 21.56 49.4391 21.56C49.7058 21.56 49.9405 21.5227 50.1431 21.448C50.3565 21.3627 50.5911 21.2507 50.8471 21.112C51.0071 21.016 51.1458 20.9467 51.2631 20.904C51.3805 20.8507 51.4978 20.824 51.6151 20.824C51.7858 20.824 51.9298 20.8987 52.0471 21.048C52.1645 21.1973 52.2231 21.384 52.2231 21.608C52.2231 21.7893 52.1805 21.9493 52.0951 22.088C52.0205 22.216 51.8925 22.3333 51.7111 22.44C51.3805 22.6533 50.9965 22.824 50.5591 22.952C50.1218 23.0693 49.6738 23.128 49.2151 23.128ZM60.5156 21.448C60.729 21.6507 60.8356 21.88 60.8356 22.136C60.8356 22.3813 60.745 22.6 60.5636 22.792C60.393 22.984 60.1903 23.08 59.9556 23.08C59.721 23.08 59.5023 22.984 59.2996 22.792L55.5556 19.4V22.136C55.5556 22.4453 55.4596 22.68 55.2676 22.84C55.0756 23 54.8356 23.08 54.5476 23.08C54.2596 23.08 54.0196 23 53.8276 22.84C53.6463 22.68 53.5556 22.4453 53.5556 22.136V12.584C53.5556 12.2747 53.6463 12.04 53.8276 11.88C54.0196 11.72 54.2596 11.64 54.5476 11.64C54.8356 11.64 55.0756 11.72 55.2676 11.88C55.4596 12.04 55.5556 12.2747 55.5556 12.584V18.6L58.9796 15.32C59.1716 15.128 59.3903 15.032 59.6356 15.032C59.881 15.032 60.0943 15.1227 60.2756 15.304C60.457 15.4853 60.5476 15.6987 60.5476 15.944C60.5476 16.1893 60.4463 16.4133 60.2436 16.616L57.7316 18.952L60.5156 21.448ZM67.6455 23C67.3362 23 67.0908 22.9147 66.9095 22.744C66.7388 22.5733 66.6535 22.3333 66.6535 22.024V12.696C66.6535 12.3867 66.7388 12.1467 66.9095 11.976C67.0908 11.8053 67.3362 11.72 67.6455 11.72H70.8135C72.6588 11.72 74.0882 12.216 75.1015 13.208C76.1255 14.1893 76.6375 15.5707 76.6375 17.352C76.6375 19.144 76.1255 20.536 75.1015 21.528C74.0882 22.5093 72.6588 23 70.8135 23H67.6455ZM70.6855 21.32C73.2775 21.32 74.5735 19.9973 74.5735 17.352C74.5735 14.7173 73.2775 13.4 70.6855 13.4H68.7175V21.32H70.6855ZM84.732 20.856C84.9133 20.856 85.0573 20.9253 85.164 21.064C85.2813 21.2027 85.34 21.3893 85.34 21.624C85.34 21.9547 85.1427 22.232 84.748 22.456C84.3853 22.6587 83.9747 22.824 83.516 22.952C83.0573 23.0693 82.62 23.128 82.204 23.128C80.9453 23.128 79.948 22.7653 79.212 22.04C78.476 21.3147 78.108 20.3227 78.108 19.064C78.108 18.264 78.268 17.5547 78.588 16.936C78.908 16.3173 79.356 15.8373 79.932 15.496C80.5187 15.1547 81.18 14.984 81.916 14.984C82.62 14.984 83.2333 15.1387 83.756 15.448C84.2787 15.7573 84.684 16.1947 84.972 16.76C85.26 17.3253 85.404 17.992 85.404 18.76C85.404 19.2187 85.2013 19.448 84.796 19.448H80.076C80.14 20.184 80.348 20.728 80.7 21.08C81.052 21.4213 81.564 21.592 82.236 21.592C82.5773 21.592 82.876 21.5493 83.132 21.464C83.3987 21.3787 83.6973 21.2613 84.028 21.112C84.348 20.9413 84.5827 20.856 84.732 20.856ZM81.964 16.392C81.42 16.392 80.9827 16.5627 80.652 16.904C80.332 17.2453 80.14 17.736 80.076 18.376H83.692C83.6707 17.7253 83.5107 17.2347 83.212 16.904C82.9133 16.5627 82.4973 16.392 81.964 16.392ZM96.336 14.984C97.1893 14.984 97.84 15.24 98.288 15.752C98.7467 16.2533 98.976 17.0693 98.976 18.2V22.136C98.976 22.4453 98.88 22.6853 98.688 22.856C98.5067 23.016 98.2667 23.096 97.968 23.096C97.68 23.096 97.44 23.016 97.248 22.856C97.0667 22.6853 96.976 22.4453 96.976 22.136V18.2C96.976 17.6133 96.8693 17.1973 96.656 16.952C96.4533 16.696 96.1387 16.568 95.712 16.568C95.1893 16.568 94.7733 16.7493 94.464 17.112C94.1547 17.464 94 17.9493 94 18.568V22.136C94 22.4453 93.904 22.6853 93.712 22.856C93.5307 23.016 93.296 23.096 93.008 23.096C92.72 23.096 92.48 23.016 92.288 22.856C92.096 22.6853 92 22.4453 92 22.136V18.2C92 17.6133 91.8933 17.1973 91.68 16.952C91.4773 16.696 91.1627 16.568 90.736 16.568C90.2133 16.568 89.7973 16.7493 89.488 17.112C89.1893 17.464 89.04 17.9493 89.04 18.568V22.136C89.04 22.4453 88.944 22.6853 88.752 22.856C88.56 23.016 88.32 23.096 88.032 23.096C87.744 23.096 87.504 23.016 87.312 22.856C87.1307 22.6853 87.04 22.4453 87.04 22.136V15.944C87.04 15.6453 87.136 15.416 87.328 15.256C87.52 15.096 87.76 15.016 88.048 15.016C88.3253 15.016 88.5493 15.096 88.72 15.256C88.9013 15.4053 88.992 15.624 88.992 15.912V16.296C89.2373 15.8693 89.5627 15.544 89.968 15.32C90.384 15.096 90.8587 14.984 91.392 14.984C92.5653 14.984 93.3493 15.4747 93.744 16.456C93.9787 16.008 94.3253 15.6507 94.784 15.384C95.2427 15.1173 95.76 14.984 96.336 14.984ZM104.577 23.128C103.777 23.128 103.073 22.9627 102.465 22.632C101.867 22.3013 101.403 21.8267 101.073 21.208C100.742 20.5893 100.577 19.8693 100.577 19.048C100.577 18.2267 100.742 17.512 101.073 16.904C101.403 16.2853 101.867 15.8107 102.465 15.48C103.073 15.1493 103.777 14.984 104.577 14.984C105.377 14.984 106.075 15.1493 106.673 15.48C107.281 15.8107 107.745 16.2853 108.065 16.904C108.395 17.512 108.561 18.2267 108.561 19.048C108.561 19.8693 108.395 20.5893 108.065 21.208C107.745 21.8267 107.281 22.3013 106.673 22.632C106.075 22.9627 105.377 23.128 104.577 23.128ZM104.561 21.576C105.211 21.576 105.707 21.3627 106.049 20.936C106.39 20.5093 106.561 19.88 106.561 19.048C106.561 18.2267 106.39 17.6027 106.049 17.176C105.707 16.7387 105.217 16.52 104.577 16.52C103.937 16.52 103.441 16.7387 103.089 17.176C102.747 17.6027 102.577 18.2267 102.577 19.048C102.577 19.88 102.747 20.5093 103.089 20.936C103.43 21.3627 103.921 21.576 104.561 21.576Z" fill="white"/>
<defs>
<linearGradient id="paint0_linear_213_171" x1="0" y1="0" x2="56.6506" y2="83.2126" gradientUnits="userSpaceOnUse">
<stop stop-color="#C381DB"/>
<stop offset="1" stop-color="#4E92F9"/>
</linearGradient>
</defs>
</svg>
