<svg width="1142" height="596" viewBox="0 0 1142 596" fill="none" xmlns="http://www.w3.org/2000/svg">
<path opacity="0.7" d="M1541.81 -101.383L1540.39 -104.944L1536.63 -105.663L21.3123 -394.876L10.2616 -396.985L13.2518 -386.139C35.5047 -305.427 48.4273 -214.015 61.7767 -119.585C67.9354 -76.0197 74.1849 -31.812 81.4833 12.2836C104.495 151.318 137.899 288.588 212.409 396.535C297.791 520.233 475.81 573.697 664.982 558.466C783.253 558.402 846.194 518.471 896.643 475.19C906.44 466.785 915.678 458.362 924.688 450.148C962.254 415.898 995.853 385.266 1049.47 374.578C1082.99 367.897 1116.85 368.249 1151.89 370.014C1159.74 370.409 1167.66 370.877 1175.65 371.349C1203.08 372.97 1231.3 374.637 1260 373.569C1334.88 370.784 1413.75 349.413 1499.12 262.138C1566.27 193.484 1576.56 102.002 1570.51 28.7371C1567.48 -7.98907 1560.33 -40.4537 1553.94 -63.7291C1550.74 -75.3752 1547.73 -84.743 1545.51 -91.2192C1544.39 -94.4578 1543.48 -96.9749 1542.84 -98.694C1542.52 -99.5537 1542.27 -100.214 1542.1 -100.665C1542.01 -100.891 1541.94 -101.064 1541.89 -101.184L1541.84 -101.324L1541.82 -101.364L1541.82 -101.376C1541.82 -101.38 1541.81 -101.383 1535.31 -98.7874L1541.81 -101.383Z" stroke="url(#paint0_linear_615_2)" stroke-width="14"/>
<path d="M1501.31 -108.628C1501.31 -108.628 1587.32 106.711 1461.5 235.289C1299.22 401.137 1163.5 315.5 1030.5 342C897.5 368.5 884.956 519.5 660 519.5C478.206 534.197 309.07 482.682 228.5 366C86.3091 160.078 100.091 -159.252 37 -388L1501.31 -108.628Z" fill="url(#paint1_linear_615_2)" fill-opacity="0.2"/>
<path d="M270.053 531.365C270.053 531.365 260.043 519.686 269.436 512.263C269.436 512.263 276.297 508.111 281.893 508.443C281.893 508.443 273.958 521.737 276.53 523.06C279.101 524.382 284.294 507.611 284.294 507.611C284.294 507.611 299.91 506.095 304.932 508.51C304.932 508.51 291.585 519.433 294.394 520.083C297.203 520.732 311.624 510.012 311.624 510.012C311.624 510.012 326.156 512.486 325.38 521.352C324.604 530.218 319.599 532.954 317.398 532.716C315.197 532.478 302.323 527.568 302.043 529.372C301.764 531.176 309.511 537.066 314.939 537.342C314.939 537.342 304.691 548.641 297.894 545.382C291.097 542.123 290.503 536.951 286.257 535.011C282.01 533.072 278.39 533.078 280.141 535.056C281.893 537.033 289.578 538.955 292.005 543.249C294.432 547.542 296.61 550.437 289.563 549.379C282.516 548.321 271.067 543.163 270.564 537.26L270.053 531.365Z" fill="#4E92F9"/>
<path d="M318.239 521.599C318.239 521.599 278.772 520.077 270.045 531.364C270.045 531.364 268.117 537.139 262.186 542.396L261.261 544.915C261.261 544.915 268.102 537.706 270.547 537.274C270.556 537.268 266.73 523.283 318.239 521.599Z" fill="#3A49CD"/>
<path d="M262.197 542.396C262.197 542.396 253.725 548.662 253.137 559.855L254.674 559.993C254.674 559.993 257.381 548.418 262.271 543.892C267.161 539.366 262.197 542.396 262.197 542.396Z" fill="#3A49CD"/>
<path d="M235.056 516.68C235.056 516.68 250.978 507.761 243.546 495.659C243.546 495.659 237.601 488.227 231.233 486.317C231.233 486.317 234.63 504.364 231.233 504.79C227.836 505.216 228.882 484.407 228.882 484.407C228.882 484.407 212.108 476.337 205.528 476.975C205.528 476.975 215.931 494.607 212.534 494.172C209.137 493.738 197.458 475.914 197.458 475.914C197.458 475.914 180.261 472.729 177.501 482.92C174.742 493.112 179.2 498.201 181.748 498.845C184.296 499.489 200.644 499.268 200.221 501.393C199.797 503.518 188.76 506.912 182.588 505.002C182.588 505.002 189.383 521.776 198.299 520.926C207.215 520.077 209.977 514.555 215.499 514.132C221.021 513.709 225.053 515.193 222.293 516.68C219.534 518.167 210.189 517.165 205.731 520.956C201.273 524.747 197.664 527.083 205.942 528.782C214.221 530.48 229.085 529.419 232.058 523.048L235.056 516.68Z" fill="#4E92F9"/>
<path d="M185.371 486.105C185.371 486.105 229.96 500.543 235.055 516.668C235.055 516.668 234.841 523.885 239.299 532.167V535.352C239.299 535.352 234.629 524.523 232.081 523.036C232.081 523.048 242.061 509.036 185.371 486.105Z" fill="#93B3F4"/>
<path d="M239.299 532.178C239.299 532.178 246.175 542.62 242.255 555.329L240.492 554.853C240.492 554.853 242.211 540.856 238.614 533.815C235.017 526.774 239.299 532.178 239.299 532.178Z" fill="#93B3F4"/>
<path d="M260.387 504.381C260.387 504.381 239.396 492.626 249.193 476.672C249.193 476.672 257.028 466.877 265.427 464.359C265.427 464.359 260.948 488.148 265.427 488.706C269.905 489.264 268.504 461.84 268.504 461.84C268.504 461.84 290.614 451.202 299.289 452.043C299.289 452.043 285.577 475.258 290.053 474.715C294.529 474.171 309.925 450.644 309.925 450.644C309.925 450.644 332.597 446.444 336.235 459.88C339.873 473.316 333.996 480.031 330.651 480.871C327.307 481.712 305.743 481.43 306.301 484.227C306.86 487.025 321.415 491.507 329.517 488.988C329.517 488.988 320.56 511.096 308.805 509.976C297.05 508.857 293.412 501.58 286.136 501.022C278.86 500.464 273.541 502.421 277.182 504.381C280.823 506.341 293.133 505.022 299.01 510.017C304.888 515.013 309.645 518.093 298.716 520.332C287.787 522.572 268.21 521.173 264.292 512.777L260.387 504.381Z" fill="#4E92F9"/>
<path d="M325.879 464.077C325.879 464.077 267.105 483.111 260.387 504.382C260.387 504.382 260.681 513.897 254.804 524.811V529.011C254.804 529.011 260.975 514.738 264.322 512.777C264.307 512.777 251.151 494.305 325.879 464.077Z" fill="#3A49CD"/>
<path d="M254.788 524.811C254.788 524.811 245.725 538.576 250.895 555.33L253.225 554.704C253.225 554.704 250.962 536.249 255.702 526.968C260.442 517.688 254.788 524.811 254.788 524.811Z" fill="#3A49CD"/>
<path d="M259.682 591.664C265.082 591.664 270.429 590.6 275.417 588.534C280.406 586.467 284.938 583.439 288.756 579.62C292.574 575.802 295.603 571.269 297.669 566.281C299.735 561.292 300.798 555.945 300.798 550.545H218.564C218.564 555.945 219.627 561.292 221.693 566.281C223.759 571.27 226.788 575.803 230.606 579.621C234.425 583.44 238.958 586.468 243.947 588.535C248.935 590.601 254.282 591.664 259.682 591.664Z" fill="#EFAB18"/>
<path d="M269.797 591.349C264.012 592.069 258.14 591.552 252.57 589.83C247 588.109 241.859 585.224 237.489 581.366C233.118 577.508 229.617 572.765 227.219 567.451C224.82 562.138 223.577 556.375 223.574 550.545H233.789C233.789 560.566 237.448 570.242 244.079 577.755C250.709 585.269 259.854 590.103 269.797 591.349Z" fill="#FFCF69"/>
<path d="M301.367 593.756H217.993C217.994 592.411 218.529 591.121 219.481 590.17C220.432 589.218 221.723 588.684 223.068 588.684H296.286C297.632 588.684 298.922 589.218 299.874 590.17C300.826 591.121 301.361 592.411 301.361 593.756H301.367Z" fill="#EFAB18"/>
<path d="M301.735 550.545H217.212V551.806H301.735V550.545Z" fill="#EFAB18"/>
<path d="M666.415 579.838C666.415 579.838 667.267 593.583 669.923 593.78C670.279 593.806 683.412 593.806 683.412 593.806L700.163 593.706C700.163 593.706 700.054 589.668 695.167 588.813C690.28 587.958 682.063 584.517 679.095 578.04C675.971 571.225 666.415 579.838 666.415 579.838Z" fill="#060632"/>
<path d="M657.465 417.293C657.465 417.293 665.379 421.792 667.595 421.792C669.811 421.792 678.506 420.111 680.931 421.348C683.355 422.586 687.743 427.573 688.571 429.201C690.041 432.139 682.612 430.835 679.094 428.34C678.842 428.16 678.554 428.035 678.251 427.973C677.947 427.91 677.634 427.912 677.331 427.978C675.509 428.375 671.724 429.062 669.896 428.387C667.439 427.479 654.497 426.468 654.497 426.468L657.465 417.293Z" fill="#FFF0F0"/>
<path d="M597.252 356C597.252 356 605.454 414.313 619.04 419.535C625.743 422.112 655.371 427.954 664.134 428.542C664.134 428.542 666.279 426.799 665.756 419.726C665.756 419.726 634.718 408.33 630.309 402.135C623.747 392.91 634.383 364.455 626.148 355.794C617.914 347.134 604.043 343.393 597.252 356Z" fill="#B78EC6"/>
<path d="M600.014 478.853C602.422 482.852 605.101 486.681 608.031 490.314C616.847 501.446 626.448 510.626 628.12 519.301C628.5 521.188 629.017 523.045 629.669 524.855C630.368 526.842 631.229 528.931 632.228 531.091C635.969 539.22 641.565 548.327 647.151 556.608C656.811 570.917 665.891 582.86 665.891 582.86L682.548 582.151C681.881 580.479 674.613 560.719 664.898 536.572C660.954 526.769 656.758 516.339 652.708 506.286L651.095 502.277C649.858 499.2 648.641 496.171 647.451 493.223C638.326 470.545 631.059 452.49 631.059 452.49C631.059 452.49 594.587 438.678 590.799 447.626C587.678 455.014 590.22 462.255 600.014 478.853Z" fill="#003E98"/>
<path d="M627.847 540.575C627.847 540.575 616.26 548.018 617.385 550.437C617.535 550.757 623.935 562.224 623.935 562.224L632.193 576.815C632.193 576.815 635.667 574.758 634.024 570.056C632.381 565.354 631.379 556.538 635.596 550.772C640.025 544.721 627.847 540.575 627.847 540.575Z" fill="#060632"/>
<path d="M633.512 553.649C633.512 553.649 626.274 547.263 624.989 542.579C624.989 542.579 654.823 506.835 661.294 498.821C661.588 498.454 661.517 498.051 661.124 497.608C656.24 492.1 601.956 480.901 594.862 469.863C592.747 466.621 591.197 463.044 590.277 459.284C588.67 452.548 589.942 447.896 589.942 447.896L644.153 446.327C644.153 446.327 689.288 474.433 694.405 493.596C699.521 512.76 633.512 553.649 633.512 553.649Z" fill="#164D9D"/>
<path d="M661.131 497.617C656.247 492.109 601.963 480.91 594.869 469.872C592.754 466.63 591.204 463.053 590.285 459.293V452.443L613.327 448.819C613.327 448.819 619.86 468.923 639.211 476.464C657.337 483.525 660.77 496.05 661.131 497.617Z" fill="#003E98"/>
<path d="M629.325 352.327C618.355 355.16 600.179 345 600.179 345C600.179 345 607.232 340.254 609.853 329.834C609.984 329.309 610.104 328.77 610.211 328.218C611.361 327.974 613.526 327.512 615.845 327.024L624.22 334.527C624.22 334.527 624.029 337.645 622.983 342.999C622.801 343.934 622.59 344.936 622.351 346.006C625.043 347.668 627.407 349.811 629.325 352.327Z" fill="#FFF0F0"/>
<path d="M588.566 397.785C590.138 418.912 588.072 451.044 589.853 456.609C591.39 461.411 608.914 458.558 615.911 456.953C618.497 456.366 621.632 455.513 624.874 454.511C633.907 451.714 643.749 447.72 644.807 444.755C644.848 444.644 644.88 444.53 644.904 444.414C644.994 444.004 644.987 443.578 644.883 443.171C644.534 441.66 643.176 440.023 643.017 436.282C642.838 432.104 642.864 427.172 642.706 421.883C642.706 421.295 642.691 420.637 642.626 420.043V419.826V419.488C642.477 413.587 642.168 407.383 641.809 401.232C641.583 397.368 641.319 393.542 641.016 389.874C640.228 380.409 639.168 371.992 637.76 366.659C635.465 357.986 630.413 352.329 625.791 348.183L622.458 345.324C618.738 346.138 614.341 345.597 610.362 343.713C606.057 341.656 604.57 340.204 603.818 340.757C593.864 348.447 586.712 371.957 588.566 397.785Z" fill="#CCABD8"/>
<path d="M624.873 454.512C633.907 451.714 643.749 447.72 644.807 444.755C644.848 444.644 644.88 444.53 644.904 444.414C644.904 444 644.903 443.585 644.883 443.171C644.533 441.661 643.176 440.024 643.017 436.283C642.838 432.104 642.864 427.173 642.705 421.883C642.705 421.295 642.691 420.637 642.626 420.043V419.826V419.488L606.095 372.968C606.095 372.968 581.545 424.09 624.873 454.512Z" fill="#B78EC6"/>
<path d="M624.232 334.527C624.232 334.527 624.041 337.645 622.994 342.999C614.813 340.354 611.104 332.966 609.864 329.834C609.996 329.309 610.115 328.77 610.223 328.218C611.372 327.974 613.538 327.512 615.856 327.024L624.232 334.527Z" fill="#FFDCDB"/>
<path d="M625.321 339.25C625.321 339.25 607.481 336.273 609.508 325.194C611.536 314.115 610.593 306.266 622.068 307.697C633.544 309.128 634.978 313.762 635.201 317.624C635.425 321.485 630.015 339.74 625.321 339.25Z" fill="#FFF0F0"/>
<path d="M695.528 434.073L697.101 434.584L710.485 393.393L708.911 392.882L695.528 434.073Z" fill="#3A49CD"/>
<path d="M651.654 433.644L697.094 434.611L697.152 431.894L651.712 430.926L651.654 433.644Z" fill="#3A49CD"/>
<path d="M652.582 435.769C652.582 435.769 667.182 439.618 672.659 439.213C678.137 438.807 682.686 436.206 683.377 434.846C684.067 433.485 685.513 431.075 681.784 431.522C678.055 431.969 672.968 432.759 672.809 432.042C672.65 431.325 675.848 431.393 675.848 431.393C675.848 431.393 676.815 429.988 675.598 429.923C674.381 429.859 670.834 428.91 669.515 429.568C668.195 430.226 666.979 432.662 666.018 432.56C665.057 432.457 653.799 427.49 653.799 427.49L652.582 435.769Z" fill="#FFF0F0"/>
<path d="M600.872 358.395C600.872 358.395 602.597 417.255 615.524 423.928C621.901 427.229 650.704 436.303 659.349 437.852C659.349 437.852 661.674 436.356 661.935 429.253C661.935 429.253 632.343 414.507 628.643 407.86C623.139 397.971 636.845 370.861 629.616 361.343C622.386 351.824 609.012 346.611 600.872 358.395Z" fill="#CCABD8"/>
<path d="M609.853 329.834C609.853 329.834 609.65 326.031 611.996 323.854C611.996 323.854 611.179 320.033 612.686 319.413C614.194 318.793 614.508 321.991 615.199 321.488C615.889 320.986 618.969 318.596 620.289 315.079C621.608 311.561 633.683 315.822 635.091 316.454C636.498 317.086 641.021 314.764 641.903 312.881C641.903 312.881 639.387 310.868 638.259 309.354C637.13 307.841 629.21 297.67 618.152 300.559C607.094 303.447 605.586 308.728 606.215 313.251C606.844 317.774 605.325 328.315 609.853 329.834Z" fill="#120E59"/>
<path d="M274.54 352.429L284.058 351.521C284.43 351.485 284.804 351.57 285.124 351.762C285.444 351.955 285.694 352.246 285.836 352.591L293.024 369.885C293.126 370.138 293.167 370.411 293.146 370.683C293.124 370.954 293.039 371.217 292.899 371.45C292.759 371.684 292.566 371.882 292.337 372.028C292.107 372.175 291.846 372.266 291.576 372.295L281.672 373.241C281.295 373.275 280.916 373.186 280.593 372.987C280.271 372.789 280.02 372.491 279.88 372.139L273.079 354.801C272.985 354.549 272.95 354.28 272.976 354.012C273.001 353.745 273.088 353.487 273.229 353.258C273.37 353.029 273.561 352.835 273.789 352.692C274.016 352.548 274.273 352.459 274.54 352.429Z" fill="#0D0D38"/>
<path d="M395.214 580.979L390.165 583.659C390.165 583.659 362.856 554.704 356.291 526.918C355.115 521.955 354.648 517.062 355.148 512.422C355.148 512.422 354.751 511.164 354.057 508.936C354.025 508.839 353.996 508.739 353.963 508.643C353.669 507.667 353.296 506.518 352.891 505.219C351.571 501.019 349.761 495.274 347.698 488.733C342.943 473.681 332.073 439.73 327.421 425.609L360.808 413.528C360.808 413.528 364.601 422.177 370.05 445.681C370.89 448.749 371.731 452.146 372.515 455.837C373.397 460.025 374.237 464.603 374.928 469.546C376.225 478.872 376.894 488.274 376.929 497.69C376.95 501.895 376.847 506.256 376.597 510.755C376.415 514.056 376.891 518.452 377.823 523.454C382.037 546.302 395.214 580.979 395.214 580.979Z" fill="#164D9D"/>
<path d="M413.497 593.756H386.505C386.505 593.756 385.497 589.451 387.269 586.521C388.839 583.929 388.236 582.454 387.075 580.309C388.508 580.929 390.061 581.221 391.622 581.164C392.967 581.088 394.39 580.476 395.636 579.753C396.811 581.076 401.772 586.715 403.326 587.832C405.087 589.099 412.954 588.649 413.497 593.756Z" fill="#0D0D38"/>
<path d="M374.934 469.528L353.963 508.613C353.669 507.638 353.296 506.489 352.891 505.19C351.571 500.99 349.761 495.245 347.698 488.703C342.943 473.651 332.073 439.701 327.421 425.58L360.808 413.499C360.808 413.499 364.601 422.148 370.05 445.651C370.89 448.719 371.731 452.117 372.515 455.808C373.412 460.007 374.243 464.585 374.934 469.528Z" fill="#003E98"/>
<path d="M284.034 383.309C283.867 383.456 275.868 375.275 271.595 370.743L275.874 368.14L299.239 382.807L284.034 383.309Z" fill="#FFF1F0"/>
<path d="M326.888 585.307C326.888 585.307 326.259 589.892 328.016 593.756H339.192C339.192 593.756 339.277 590.418 336.427 586.227C333.576 582.037 326.888 585.307 326.888 585.307Z" fill="#0D0D38"/>
<path d="M348.925 286.949C349.078 286.235 350.982 278.58 362.863 280.229C362.863 280.229 356.936 279.911 355.487 282.286C355.487 282.286 359.989 279.82 363.033 281.404C366.078 282.988 366.986 288.948 366.683 290.808C366.381 292.668 363.548 298.337 361.417 298.49C360.571 298.515 359.729 298.37 358.94 298.064C359.365 299.076 359.73 300.114 360.033 301.17C363.063 311.664 356.557 320.271 352.751 318.532C350.309 317.418 348.825 321.658 348.825 321.658L327.469 297.208C327.469 297.208 339.888 279.899 348.925 286.949Z" fill="#12123C"/>
<path d="M327.069 352.515C329.855 354.448 333.349 356.041 337.734 357.055C354.17 360.852 360.471 346.958 362.836 337.422C361.114 336.47 359.212 335.888 357.253 335.711C356.077 335.57 354.814 335.479 353.779 335.417C351.934 334.004 349.183 328.218 348.575 319.234L347.802 319.443L334.848 322.987C334.848 322.987 335.436 327.101 335.73 330.998C335.953 334.045 335.988 336.954 335.412 337.665C334.401 337.886 333.796 338.03 333.796 338.03C331.096 342.632 328.843 347.482 327.069 352.515Z" fill="#FFF1F0"/>
<path d="M334.862 322.998C334.862 322.998 335.45 327.112 335.743 331.009C343.09 330.274 346.49 323.286 347.816 319.454L334.862 322.998Z" fill="#FFDCDB"/>
<path d="M332.671 326.866C332.671 326.866 350.092 325.905 349.325 315.064C348.558 304.223 350.295 296.8 339.14 296.956C327.984 297.111 326.118 301.399 325.492 305.078C324.866 308.757 328.119 326.836 332.671 326.866Z" fill="#FFF1F0"/>
<path d="M325.577 299.016C328.034 295.563 330.117 296.133 331.325 297.032C340.462 291.119 347.144 298.41 347.144 298.41C348.866 306.104 354.785 310.165 354.785 310.165C354.785 310.165 351.755 312.351 344.308 310.997C342.034 310.582 339.927 309.139 338.093 307.335C340.248 310.345 342.804 313.048 345.69 315.366C336.668 311.958 332.289 300.062 331.848 298.801C330.855 299.832 328.91 302.054 328.416 304.132C327.749 306.953 327.764 312.654 326.094 312.589C326.103 312.581 321.895 304.194 325.577 299.016Z" fill="#12123C"/>
<path d="M329.854 337.166C329.854 337.166 358.233 330.275 370.573 340.454L364.401 426.462L308.901 413.052C308.901 413.052 310.461 407.61 321.105 393.137C331.749 378.664 327.121 357.44 329.854 337.166Z" fill="#FFF1F0"/>
<path d="M346.395 416.887C346.395 416.887 346.363 417.181 346.307 417.734C346.28 417.972 346.248 418.263 346.213 418.598C345.975 420.828 345.522 425.104 344.937 430.667C343.415 445.252 341.026 468.682 339.398 487.172C338.123 501.631 337.314 513.074 337.752 514.911C339.066 520.439 337.752 586.536 337.752 586.536C333.033 588.799 325.88 586.536 325.88 586.536C325.88 586.536 313.317 526.974 315.074 518.696C316.832 510.418 313.899 503.35 313.899 503.35C304.142 457.915 305.212 432.733 307.14 420.678C307.513 418.191 308.071 415.735 308.809 413.331C308.993 412.715 309.216 412.11 309.476 411.521C331.005 405.714 346.395 416.887 346.395 416.887Z" fill="#164D9D"/>
<path d="M364.405 426.459C358.227 429.04 351.629 430.466 344.936 430.667C339.554 430.822 334.174 430.312 328.917 429.148C318.276 426.832 310.171 422.547 307.147 420.678C307.52 418.191 308.078 415.736 308.817 413.332C315.367 408.665 331.568 413.129 344.801 418.078L346.212 418.612C356.347 422.474 364.405 426.459 364.405 426.459Z" fill="#003E98"/>
<path d="M374.396 364.984C373.027 375.331 367.546 387.994 365.58 394.809C365.58 394.809 368.851 418.471 365.727 424.966C365.371 425.709 364.934 426.227 364.396 426.459C352.823 431.502 307.752 426.606 305.848 412.059C305.157 406.769 323.016 388.194 324.068 385.94C324.5 385.005 324.949 381.984 322.866 375.719C319.898 384.867 314.417 395.435 308.904 397.236C302.844 399.217 278.885 381.367 278.885 381.367C278.885 381.367 278.747 379.198 281.777 377.147C283.725 375.828 288.198 375.384 288.198 375.384L303.517 382.24C305.439 378.949 310.229 356.191 315.566 345.918C319.589 338.195 330.324 337.075 330.324 337.075C330.324 337.075 334.791 344.163 345.606 343.158C356.42 342.153 358.389 335.538 358.389 335.538C358.389 335.538 367.972 336.811 370.926 339.194C371.44 339.614 376.195 351.431 374.396 364.984Z" fill="#CCABD8"/>
<path d="M367.014 394.997C367.014 394.997 368.862 418.471 365.738 424.966C357.307 420.734 346.316 411.601 349.66 397.324C354.518 376.586 374.398 364.999 374.398 364.999C373.029 375.331 368.971 388.182 367.014 394.997Z" fill="#B78EC6"/>
<path d="M358.394 378.905C358.394 378.905 346.389 380.644 345.431 381.55C344.473 382.455 341.161 387.653 341.57 389.464C341.978 391.274 341.937 393.143 342.672 393.014C343.407 392.884 345.802 388.282 346.71 388.071C347.618 387.859 348.361 387.239 348.473 387.644C348.585 388.05 346.63 389.995 346.724 390.533C346.818 391.071 348.358 390.439 349.049 389.372C349.74 388.306 351.462 387.774 351.723 387.11C351.985 386.446 353.169 384.241 354.785 384.341C356.402 384.441 358.394 378.905 358.394 378.905Z" fill="#FFF1F0"/>
<path d="M370.072 378.431L358.393 378.904L354.396 384.35L370.28 384.882L370.072 378.431Z" fill="#FFF1F0"/>
<path d="M358.392 335.544C358.392 335.544 372.31 337.195 376.142 343.164C380.988 350.711 398.109 375.74 397.741 383.313C397.741 383.313 387.074 387.562 358.401 385.285C358.401 385.285 357.881 380.947 363.911 377.468C363.911 377.468 379.307 375.36 381.003 373.865L369.574 361.719L358.392 335.544Z" fill="#CCABD8"/>
<path d="M272.462 352.618L281.978 351.71C282.349 351.676 282.722 351.762 283.042 351.954C283.362 352.147 283.613 352.435 283.758 352.779L290.944 370.074C291.049 370.326 291.093 370.6 291.074 370.872C291.054 371.145 290.97 371.409 290.829 371.644C290.689 371.878 290.495 372.076 290.264 372.222C290.032 372.368 289.77 372.457 289.498 372.483L279.591 373.43C279.214 373.463 278.836 373.374 278.513 373.175C278.19 372.977 277.939 372.68 277.799 372.328L271.013 354.992C270.915 354.741 270.876 354.471 270.899 354.203C270.923 353.934 271.008 353.675 271.148 353.445C271.288 353.215 271.48 353.021 271.708 352.877C271.936 352.734 272.194 352.645 272.462 352.618Z" fill="#120E59"/>
<path d="M271.601 370.743C271.601 370.743 269.089 366.409 269.277 365.342C269.465 364.275 272.065 359.321 273.391 358.827C275.777 357.945 279.13 357.405 278.207 359.917C277.599 361.578 275.192 363.982 275.613 364.734C276.033 365.486 275.868 368.14 275.868 368.14L271.601 370.743Z" fill="#FFF1F0"/>
<path d="M650.535 557.427C646.955 579.158 623.551 592.997 599.545 592.997H552L555.719 466.332C555.719 466.332 601.084 452.537 612.464 465.66C622.447 477.158 649.518 522.67 650.943 549.608C651.09 552.221 650.954 554.841 650.535 557.427Z" fill="#A8C5EF"/>
<path d="M530.648 479.57C530.648 479.57 591.774 448.375 603.346 468.752C609.491 479.573 626.406 522.742 627.655 549.831C628.869 576.156 606.064 593.462 582.605 593.462H540.94L530.648 479.57Z" fill="#3662C1"/>
<path d="M542.14 496.873C541.625 499.518 536.676 501.986 529.333 504.161C528.04 504.552 526.675 504.928 525.239 505.286C500.245 511.672 455.977 515.234 451.757 513.353C445.926 510.749 410.139 383.6 410.139 383.6C410.139 383.6 444.301 382.316 471.431 381.69C480.712 381.478 489.169 381.343 495.155 381.361C495.844 381.361 496.531 381.409 497.213 381.505C499.529 381.779 501.671 382.875 503.249 384.593C507.619 389.295 508.7 398.558 512.744 408.805C516.743 418.941 521.651 431.586 526.306 444.138C527.505 447.37 528.689 450.603 529.832 453.777C530.155 454.676 530.476 455.568 530.793 456.454C537.676 475.702 542.974 492.579 542.14 496.873Z" fill="#BED2FA"/>
<path d="M650.908 557.692C647.496 579.548 625.194 593.465 602.319 593.465H580.097C594.917 583.421 608.317 552.473 650.908 557.692Z" fill="#8EB0E1"/>
<path d="M530.794 456.454C529.66 456.269 528.194 456.028 526.533 455.746C526.213 455.437 525.948 455.077 525.749 454.679C525.079 453.21 525.537 448.984 526.304 444.138C521.649 431.587 516.742 418.942 512.742 408.806C508.698 398.559 507.617 389.287 503.247 384.594C501.669 382.875 499.528 381.779 497.211 381.505C493.605 381.555 489.796 381.617 485.87 381.691C484.474 384.459 482.071 387.068 477.915 389.255C459.381 399.011 473.131 419.115 473.131 419.115C473.263 419.206 480.478 433.562 480.478 433.562C480.451 432.56 481.424 430.764 483.09 428.481C484.322 437.062 486.323 445.819 488.709 452.099C487.401 458.726 484.043 468.597 482.244 476.146C480.804 482.171 480.36 486.708 482.738 486.931C483.031 486.957 483.326 486.957 483.619 486.931C483.474 489.225 483.975 491.512 485.065 493.535C489.711 502.512 512.057 504.114 529.325 504.161C536.672 501.986 541.618 499.524 542.132 496.873C542.972 492.58 537.674 475.703 530.794 456.454Z" fill="#93B3F4"/>
<path d="M615.24 573.893C606.495 586.042 593.08 593.833 578.136 593.583L513.896 593.615H483.116L517.746 479.593C517.746 479.593 605.396 470.874 616.193 482.503C621.212 487.901 624.03 512.348 625.596 536.992C626.505 550.88 622.461 563.872 615.24 573.893Z" fill="#5076C9"/>
<path d="M615.242 573.894C606.497 586.042 593.081 593.833 578.138 593.583L513.898 593.615C521.456 587.268 545.23 569.262 570.688 570.106C589.984 570.77 605.306 570.491 615.242 573.894Z" fill="#3662C1"/>
<path d="M536.268 399.764C536.268 399.764 541.605 407.663 544.649 424.267C547.315 438.807 549.645 444.176 553.504 447.159C557.362 450.142 578.806 458.946 578.806 458.946L577.201 462.705C577.201 462.705 545.757 458.42 542.231 453.166C538.704 447.911 525.233 416.861 526.277 409.711C527.32 402.561 536.268 399.764 536.268 399.764Z" fill="#FFECEC"/>
<path d="M613.25 573.221C612.956 576.289 617.235 577.041 622.181 577.279C627.127 577.517 625.631 578.54 632.408 579.765C639.184 580.99 641.9 579.139 642.399 578.222C642.837 577.411 639.684 576.142 636.328 574.696C635.905 574.516 635.482 574.331 635.058 574.146C631.279 572.486 629.16 569.098 626.213 565.953C623.424 562.979 620.773 553.449 620.773 553.449L611.566 551.483C611.566 551.483 614.152 560.058 615.049 563.72C615.578 565.874 614.796 568.281 614.105 570.114C613.682 571.106 613.394 572.151 613.25 573.221Z" fill="#FDB3B1"/>
<path d="M622.176 577.279C627.122 577.526 625.626 578.54 632.403 579.765C639.18 580.99 641.895 579.139 642.394 578.222C642.832 577.411 639.679 576.142 636.323 574.696L636.27 574.754C632.922 575.72 629.375 575.762 626.005 574.875C621.524 573.658 617.189 570.981 614.101 570.114C613.681 571.104 613.396 572.146 613.254 573.212C612.969 576.277 617.236 577.035 622.176 577.279Z" fill="#060632"/>
<path d="M521.564 464.018C521.564 464.018 582.754 459.413 594.274 466.684C605.794 473.954 624.272 558.645 624.272 558.645C624.272 558.645 623.129 559.559 620.584 559.82C618.216 560.076 612.999 558.683 612.999 558.683C612.999 558.683 586.445 520.791 584.576 511.246C582.707 501.701 583.163 493.182 578.904 492.956C574.646 492.729 521.556 499.421 513.527 485.262C505.499 471.104 512.134 457.109 512.134 457.109L521.564 464.018Z" fill="#B78EC6"/>
<path d="M589.849 583.051C589.556 586.116 593.837 586.871 598.78 587.109C603.723 587.347 602.23 588.367 609.01 589.595C615.789 590.823 618.499 588.966 619.001 588.052C619.439 587.238 616.289 585.969 612.93 584.526C612.51 584.347 612.087 584.161 611.663 583.976C607.884 582.313 605.762 578.925 602.818 575.783C600.026 572.806 597.378 563.279 597.378 563.279L588.168 561.31C588.168 561.31 590.754 569.888 591.651 573.55C592.18 575.704 591.401 578.111 590.71 579.941C590.286 580.935 589.997 581.981 589.849 583.051Z" fill="#FDB3B1"/>
<path d="M598.766 587.109C603.711 587.356 602.216 588.367 608.995 589.595C615.775 590.823 618.484 588.966 618.987 588.052C619.425 587.238 616.274 585.969 612.915 584.526L612.865 584.582C609.518 585.549 605.971 585.592 602.601 584.705C598.116 583.486 593.784 580.808 590.696 579.941C590.276 580.933 589.991 581.975 589.847 583.042C589.556 586.116 593.823 586.856 598.766 587.109Z" fill="#060632"/>
<path d="M509.581 467.815C509.581 467.815 563.947 470.389 575.167 478.1C586.387 485.812 601.56 571.152 601.56 571.152C601.56 571.152 600.384 572.033 597.831 572.198C595.453 572.362 590.296 570.767 590.296 570.767C590.296 570.767 565.237 531.87 563.742 522.26C562.246 512.651 563.03 504.155 558.784 503.746C554.538 503.338 501.229 507.964 493.756 493.514C486.283 479.064 509.581 467.815 509.581 467.815Z" fill="#CCABD8"/>
<path d="M528.95 348.198C526.537 346.605 523.543 346.249 521.433 346.235C522.021 345.712 523.09 345.579 523.09 345.579C521.8 345.285 518.806 346.396 518.806 346.396C501.144 338.203 496.516 364.704 496.472 370.931C496.427 377.159 496.004 384.297 486.586 389.254C468.051 399.011 481.802 419.115 481.802 419.115C481.934 419.206 489.148 433.564 489.148 433.564C489.025 428.521 513.91 403.619 526.499 396.504C529.732 392.39 531.278 384.808 531.395 384.212C530.487 390.233 529.223 393.562 528.163 395.414C539.024 386.692 535.345 352.418 528.95 348.198Z" fill="#A83F3F"/>
<path d="M507.285 390.665C507.285 390.665 512.087 390.874 517.148 391.353C520.586 391.679 524.256 392.058 526.196 392.869C530.986 394.87 530.483 403.354 520.43 401.782C510.377 400.21 506.592 393.195 507.285 390.665Z" fill="#FDB3B1"/>
<path d="M525.782 396.851C525.84 396.88 527.213 404.148 520.633 403.857C516.31 403.666 506.991 398.438 507.814 394.747C508.205 392.983 511.47 388.426 512.128 377.996L512.913 378.205L526.137 381.752C526.137 381.752 525.549 385.951 525.276 389.924C525.05 393.266 525.041 396.442 525.782 396.851Z" fill="#FFF0F0"/>
<path d="M526.141 381.758C526.141 381.758 525.553 385.957 525.28 389.931C517.795 389.219 514.286 382.111 512.914 378.211L526.141 381.758Z" fill="#FFDCDB"/>
<path d="M511.629 376.659C511.629 376.659 508.102 370.194 507.515 364.813C507.091 360.993 509.96 347.055 523.948 350.02C526.764 350.602 529.414 351.807 531.703 353.546C534.642 355.821 538.756 360.599 532.993 372.522L531.433 376.577L511.629 376.659Z" fill="#A83F3F"/>
<path d="M528.393 385.687C528.393 385.687 510.628 384.806 511.348 373.744C512.068 362.683 510.267 355.131 521.634 355.23C533.001 355.33 534.932 359.694 535.587 363.459C536.242 367.223 533.033 385.634 528.393 385.687Z" fill="#FFF0F0"/>
<path d="M529.747 355.5C529.747 355.5 524.025 368.137 516.44 369.562C508.856 370.987 505.755 368.769 505.755 368.769C505.755 368.769 511.78 364.607 513.493 356.755C513.493 356.755 526.494 349.082 529.747 355.5Z" fill="#A83F3F"/>
<path d="M528.475 356.461C528.475 356.461 531.91 359.6 532.606 362.474C533.303 365.348 533.315 371.167 535.016 371.084C535.016 371.084 539.265 362.512 535.483 357.252C531.475 351.683 528.475 356.461 528.475 356.461Z" fill="#A83F3F"/>
<path d="M546.167 464.947C544.73 466.666 540.243 467.195 535.444 467.982C531.671 468.605 527.703 469.387 524.885 471.045C518.482 474.803 497.555 487.501 491.428 486.931C489.048 486.708 489.494 482.17 490.934 476.149C493.2 466.639 497.946 453.433 497.946 447.691C497.946 444.555 498.989 437.138 500.382 428.66C500.494 427.975 500.609 427.287 500.726 426.602C503.48 410.116 507.294 390.677 507.294 390.677C507.294 390.677 511.549 399.954 519.839 399.954C528.13 399.954 526.205 392.875 526.205 392.875C526.205 392.875 533.769 393.757 535.556 395.69C537.342 397.624 541.877 405.937 542.776 408.206C542.776 408.206 542.958 411.092 535.808 412.467C535.808 412.467 537.551 420.308 537.757 425.533C537.91 429.391 535.112 441.472 534.321 448.987C534.028 451.649 533.998 453.738 534.433 454.685C534.986 455.898 536.784 457.106 538.809 458.293C542.844 460.639 547.875 462.904 546.167 464.947Z" fill="#164D9D"/>
<path d="M538.809 458.287C543.399 466.11 526.363 468.464 523.545 470.119C517.142 473.88 497.558 487.51 491.428 486.931C489.048 486.708 489.494 482.17 490.934 476.149C493.2 466.639 497.946 453.433 497.946 447.691C497.946 444.555 498.989 437.138 500.382 428.659L507.761 421.571C507.761 421.571 515.672 442.013 523.21 445.375C526.795 446.916 530.515 448.123 534.321 448.981C534.028 451.643 533.998 453.732 534.433 454.679C534.986 455.892 536.775 457.1 538.809 458.287Z" fill="#003E98"/>
<path d="M505.026 396.784C505.026 396.784 498.717 392.963 492.613 400.222C486.509 407.48 496.95 459.463 505.993 462.134C516.034 465.1 545.048 461.658 545.048 461.658L544.49 457.124C544.49 457.124 513.604 451.202 512.32 449.554C511.036 447.905 508.235 397.624 505.026 396.784Z" fill="#FFF0F0"/>
<path d="M507.286 390.665C507.286 390.665 494.326 391.841 490.562 396.096C486.797 400.351 485.698 411.912 485.698 411.912C485.698 411.912 497.112 421.125 510.862 417.548L507.286 390.665Z" fill="#164D9D"/>
<path d="M565.196 464.089H548.078V466.111H565.196V464.089Z" fill="#EB6453"/>
<path d="M561.546 465.834C561.714 465.164 577.283 440.717 577.283 440.717H611.928L594.551 465.176L561.546 465.834Z" fill="#EB6453"/>
<path d="M563.005 466.111C563.172 465.441 578.792 440.717 578.792 440.717H611.928L595.395 466.111H563.005Z" fill="#C22511"/>
<path d="M592.214 453.495C592.028 453.995 591.701 454.43 591.273 454.748C590.845 455.067 590.334 455.255 589.802 455.29C588.811 455.29 588.285 454.485 588.626 453.495C588.813 452.995 589.14 452.56 589.568 452.242C589.996 451.924 590.507 451.736 591.039 451.702C592.029 451.702 592.555 452.504 592.214 453.495Z" fill="#CCABD8"/>
<path d="M541.963 456.857C541.963 456.857 552.019 454.908 553.154 455.387C554.288 455.866 560.615 461.559 559.965 462.687C559.316 463.816 556.733 464.632 553.794 463.66C550.855 462.687 544.549 462.19 543.415 460.739C542.28 459.287 541.963 456.857 541.963 456.857Z" fill="#FFF0F0"/>
<path d="M562.007 558.836C558.331 580.033 538.171 593.465 517.506 593.465H475.841L479.1 466.075C479.1 466.075 518.852 452.202 528.838 465.4C537.587 476.963 561.308 522.737 562.557 549.829C562.703 552.842 562.519 555.862 562.007 558.836Z" fill="#A8C5EF"/>
<path d="M562.006 558.836C558.33 580.033 538.171 593.465 517.506 593.465H484.163C499.771 582.886 520.785 553.649 562.006 558.836Z" fill="#8EB0E1"/>
<path d="M497.415 593.371L496.481 593.433C495.823 593.468 495.161 593.489 494.5 593.501H493.839H452.171V593.48L449.764 593.509C445.474 593.562 440.992 593.612 436.834 593.647L434.777 593.665H434.028C429.913 593.692 426.29 593.703 423.698 593.686C420.249 593.68 416.804 593.415 413.395 592.892C409.44 592.301 405.58 591.196 401.91 589.607C400.661 589.056 399.442 588.437 398.261 587.752C396.678 586.842 395.167 585.813 393.741 584.673C390.044 581.734 386.847 577.984 384.128 573.385C382.116 569.93 380.443 566.289 379.132 562.512C377.325 557.413 375.871 551.609 374.751 545.047C373.149 535.681 372.235 524.77 371.959 512.163C371.847 507.085 371.839 501.727 371.933 496.088C372.082 487.076 372.484 477.318 373.14 466.813C374.054 452.043 375.456 435.751 377.305 417.816C378.991 401.435 380.937 389.986 383.77 387.377C387.943 383.53 396.65 381.981 402.707 381.361C406.468 380.976 409.198 380.947 409.198 380.947C416.598 380.947 423.175 386.26 425.549 394.153C430.384 410.228 439.017 438.966 448.001 469.026C448.048 469.176 448.092 469.32 448.139 469.478L449.688 474.668C449.767 474.932 449.847 475.197 449.929 475.461L451.501 474.759L451.557 474.736C453.711 473.781 456.147 472.734 458.777 471.668C460.149 471.115 461.56 470.559 463.012 469.998C467.126 468.42 471.564 466.863 476.063 465.523C478.058 464.935 480.068 464.368 482.067 463.877C484.632 463.239 487.177 462.702 489.657 462.302L489.875 462.267L490.756 462.134C501.456 460.562 510.74 461.652 514.58 468.429C520.725 479.282 537.64 522.575 538.889 549.746C540.044 574.807 519.559 591.711 497.415 593.371Z" fill="#5076C9"/>
<path d="M430.586 480.551C430.586 480.551 409.202 393.43 407.665 386.107C406.977 382.842 404.855 381.664 402.722 381.361C406.48 380.976 409.216 380.947 409.216 380.947C416.613 380.947 423.19 386.236 425.564 394.115C430.745 411.283 440.281 442.939 449.956 475.185C449.441 475.185 430.586 480.551 430.586 480.551Z" fill="#A8C5EF"/>
<path d="M751.292 594H166.708C166.317 594 166 594.408 166 594.912V595.088C166 595.592 166.317 596 166.708 596H751.292C751.683 596 752 595.592 752 595.088V594.912C752 594.408 751.683 594 751.292 594Z" fill="#4E92F9"/>
<defs>
<linearGradient id="paint0_linear_615_2" x1="1177.5" y1="835" x2="792.5" y2="-388" gradientUnits="userSpaceOnUse">
<stop stop-color="#EFAB18"/>
<stop offset="1" stop-color="#FFF0D0"/>
</linearGradient>
<linearGradient id="paint1_linear_615_2" x1="424.5" y1="728" x2="1076.67" y2="-170.402" gradientUnits="userSpaceOnUse">
<stop stop-color="#CD8BE6"/>
<stop offset="1" stop-color="#4B95FF"/>
</linearGradient>
</defs>
</svg>
