<svg width="107" height="33" viewBox="0 0 107 33" fill="none" xmlns="http://www.w3.org/2000/svg">
<path d="M0 3.5C0 2.39543 0.895431 1.5 2 1.5H25.1716C26.9534 1.5 27.8457 3.65428 26.5858 4.91421L15 16.5L3.41422 28.0858C2.15429 29.3457 0 28.4534 0 26.6716V3.5Z" fill="url(#paint0_linear_501_40)"/>
<path d="M29 27.5C29 28.6046 28.1046 29.5 27 29.5L17.8284 29.5C16.0466 29.5 15.1543 27.3457 16.4142 26.0858L21 21.5L25.5858 16.9142C26.8457 15.6543 29 16.5466 29 18.3284L29 27.5Z" fill="url(#paint1_linear_501_40)"/>
<path d="M54.384 21.192C54.752 21.56 54.936 21.96 54.936 22.392C54.936 22.84 54.76 23.232 54.408 23.568C54.072 23.904 53.68 24.072 53.232 24.072C52.72 24.072 52.264 23.864 51.864 23.448L44.424 16.176V22.272C44.424 22.848 44.256 23.304 43.92 23.64C43.584 23.976 43.128 24.144 42.552 24.144C41.976 24.144 41.52 23.976 41.184 23.64C40.848 23.304 40.68 22.848 40.68 22.272V8.808C40.68 8.248 40.848 7.8 41.184 7.464C41.52 7.128 41.976 6.96 42.552 6.96C43.128 6.96 43.584 7.128 43.92 7.464C44.256 7.8 44.424 8.248 44.424 8.808V14.544L51.672 7.512C52.024 7.16 52.424 6.984 52.872 6.984C53.32 6.984 53.712 7.152 54.048 7.488C54.384 7.808 54.552 8.192 54.552 8.64C54.552 9.104 54.36 9.52 53.976 9.888L48.264 15.24L54.384 21.192ZM59.6816 24.144C59.1536 24.144 58.7136 24 58.3616 23.712C58.0256 23.424 57.8576 23 57.8576 22.44V8.664C57.8576 8.104 58.0256 7.68 58.3616 7.392C58.7136 7.104 59.1536 6.96 59.6816 6.96C60.1936 6.96 60.6176 7.104 60.9536 7.392C61.3056 7.68 61.4816 8.104 61.4816 8.664V22.44C61.4816 23 61.3056 23.424 60.9536 23.712C60.6176 24 60.1936 24.144 59.6816 24.144ZM74.9121 20.496C75.2321 20.496 75.4881 20.624 75.6801 20.88C75.8881 21.136 75.9921 21.464 75.9921 21.864C75.9921 22.136 75.9121 22.392 75.7521 22.632C75.5921 22.856 75.3681 23.048 75.0801 23.208C74.5361 23.496 73.9041 23.736 73.1841 23.928C72.4641 24.104 71.8001 24.192 71.1921 24.192C69.9121 24.192 68.7921 23.944 67.8321 23.448C66.8881 22.952 66.1601 22.248 65.6481 21.336C65.1361 20.408 64.8801 19.32 64.8801 18.072C64.8801 16.872 65.1281 15.808 65.6241 14.88C66.1201 13.952 66.8081 13.232 67.6881 12.72C68.5681 12.192 69.5681 11.928 70.6881 11.928C71.7601 11.928 72.6961 12.168 73.4961 12.648C74.3121 13.112 74.9441 13.784 75.3921 14.664C75.8401 15.528 76.0641 16.544 76.0641 17.712C76.0641 18.064 75.9761 18.336 75.8001 18.528C75.6401 18.704 75.4081 18.792 75.1041 18.792H68.3841C68.4961 19.736 68.7841 20.424 69.2481 20.856C69.7121 21.272 70.3761 21.48 71.2401 21.48C71.7041 21.48 72.1201 21.424 72.4881 21.312C72.8561 21.2 73.2641 21.048 73.7121 20.856C73.9361 20.76 74.1521 20.68 74.3601 20.616C74.5681 20.536 74.7521 20.496 74.9121 20.496ZM70.7841 14.424C70.0961 14.424 69.5441 14.648 69.1281 15.096C68.7121 15.528 68.4641 16.16 68.3841 16.992H73.0161C72.9681 16.144 72.7521 15.504 72.3681 15.072C72.0001 14.64 71.4721 14.424 70.7841 14.424ZM84.7569 11.928C86.4849 11.928 87.7649 12.352 88.5969 13.2C89.4289 14.032 89.8449 15.312 89.8449 17.04V22.464C89.8449 22.992 89.6929 23.408 89.3889 23.712C89.0849 24 88.6609 24.144 88.1169 24.144C87.6049 24.144 87.1889 23.992 86.8689 23.688C86.5649 23.368 86.4129 22.96 86.4129 22.464V22.296C86.1729 22.888 85.7729 23.352 85.2129 23.688C84.6529 24.024 83.9969 24.192 83.2449 24.192C82.4449 24.192 81.7169 24.032 81.0609 23.712C80.4209 23.392 79.9089 22.944 79.5249 22.368C79.1569 21.792 78.9729 21.152 78.9729 20.448C78.9729 19.584 79.1889 18.904 79.6209 18.408C80.0689 17.912 80.7809 17.552 81.7569 17.328C82.7329 17.104 84.0689 16.992 85.7649 16.992H86.3889V16.56C86.3889 15.888 86.2369 15.4 85.9329 15.096C85.6449 14.792 85.1569 14.64 84.4689 14.64C83.7809 14.64 82.7889 14.88 81.4929 15.36C81.1249 15.536 80.8129 15.624 80.5569 15.624C80.2049 15.624 79.9249 15.504 79.7169 15.264C79.5089 15.008 79.4049 14.68 79.4049 14.28C79.4049 13.96 79.4769 13.696 79.6209 13.488C79.7649 13.28 79.9969 13.088 80.3169 12.912C80.8769 12.608 81.5569 12.368 82.3569 12.192C83.1729 12.016 83.9729 11.928 84.7569 11.928ZM84.0369 21.696C84.7409 21.696 85.3089 21.464 85.7409 21C86.1729 20.52 86.3889 19.904 86.3889 19.152V18.744H85.9809C84.6849 18.744 83.7729 18.848 83.2449 19.056C82.7329 19.264 82.4769 19.64 82.4769 20.184C82.4769 20.632 82.6209 21 82.9089 21.288C83.2129 21.56 83.5889 21.696 84.0369 21.696ZM101.146 11.928C102.554 11.928 103.602 12.344 104.29 13.176C104.978 13.992 105.322 15.232 105.322 16.896V22.44C105.322 22.968 105.155 23.384 104.819 23.688C104.498 23.992 104.058 24.144 103.498 24.144C102.938 24.144 102.498 23.992 102.178 23.688C101.858 23.384 101.698 22.968 101.698 22.44V17.064C101.698 16.264 101.546 15.68 101.242 15.312C100.954 14.944 100.498 14.76 99.8745 14.76C99.1225 14.76 98.5145 15 98.0505 15.48C97.6025 15.96 97.3785 16.6 97.3785 17.4V22.44C97.3785 22.968 97.2185 23.384 96.8985 23.688C96.5785 23.992 96.1385 24.144 95.5785 24.144C95.0185 24.144 94.5705 23.992 94.2345 23.688C93.9145 23.384 93.7545 22.968 93.7545 22.44V13.632C93.7545 13.136 93.9225 12.736 94.2585 12.432C94.6105 12.128 95.0585 11.976 95.6025 11.976C96.0985 11.976 96.4985 12.128 96.8025 12.432C97.1225 12.72 97.2825 13.096 97.2825 13.56V13.896C97.6985 13.256 98.2345 12.768 98.8905 12.432C99.5625 12.096 100.314 11.928 101.146 11.928Z" fill="url(#paint2_linear_501_40)"/>
<defs>
<linearGradient id="paint0_linear_501_40" x1="15" y1="1.5" x2="15" y2="31.5" gradientUnits="userSpaceOnUse">
<stop stop-color="#579AFF"/>
<stop offset="1" stop-color="#4E92F9"/>
</linearGradient>
<linearGradient id="paint1_linear_501_40" x1="21" y1="29.5" x2="21" y2="13.5" gradientUnits="userSpaceOnUse">
<stop stop-color="#C048EC"/>
<stop offset="1" stop-color="#F9E9FF"/>
</linearGradient>
<linearGradient id="paint2_linear_501_40" x1="39" y1="0" x2="94.232" y2="47.7642" gradientUnits="userSpaceOnUse">
<stop stop-color="#C381DB"/>
<stop offset="1" stop-color="#4E92F9"/>
</linearGradient>
</defs>
</svg>
