<svg width="30" height="31" viewBox="0 0 30 31" fill="none" xmlns="http://www.w3.org/2000/svg">
<path d="M0 2.5C0 1.39543 0.895431 0.5 2 0.5H25.1716C26.9534 0.5 27.8457 2.65428 26.5858 3.91421L15 15.5L3.41422 27.0858C2.15429 28.3457 0 27.4534 0 25.6716V2.5Z" fill="url(#paint0_linear_501_41)"/>
<path d="M29 26.5C29 27.6046 28.1046 28.5 27 28.5L17.8284 28.5C16.0466 28.5 15.1543 26.3457 16.4142 25.0858L21 20.5L25.5858 15.9142C26.8457 14.6543 29 15.5466 29 17.3284L29 26.5Z" fill="url(#paint1_linear_501_41)"/>
<defs>
<linearGradient id="paint0_linear_501_41" x1="15" y1="0.5" x2="15" y2="30.5" gradientUnits="userSpaceOnUse">
<stop stop-color="#579AFF"/>
<stop offset="1" stop-color="#4E92F9"/>
</linearGradient>
<linearGradient id="paint1_linear_501_41" x1="21" y1="28.5" x2="21" y2="12.5" gradientUnits="userSpaceOnUse">
<stop stop-color="#C048EC"/>
<stop offset="1" stop-color="#F9E9FF"/>
</linearGradient>
</defs>
</svg>
