<svg width="131" height="77" viewBox="0 0 131 77" fill="none" xmlns="http://www.w3.org/2000/svg">
<g filter="url(#filter0_d_501_69)">
<rect x="20" y="13.5" width="91" height="36" rx="8" fill="white"/>
<path d="M41.12 36.644C40.2987 36.644 39.52 36.5373 38.784 36.324C38.0587 36.1 37.4667 35.8013 37.008 35.428C36.7627 35.2467 36.64 34.9907 36.64 34.66C36.64 34.436 36.704 34.244 36.832 34.084C36.9707 33.9133 37.1307 33.828 37.312 33.828C37.504 33.828 37.7227 33.9027 37.968 34.052C38.4267 34.3827 38.9067 34.6227 39.408 34.772C39.9093 34.9213 40.464 34.996 41.072 34.996C41.8507 34.996 42.448 34.8627 42.864 34.596C43.28 34.3187 43.488 33.9187 43.488 33.396C43.488 32.9907 43.2907 32.6813 42.896 32.468C42.512 32.244 41.8667 32.0307 40.96 31.828C40.0213 31.6253 39.2587 31.3907 38.672 31.124C38.0853 30.8573 37.6427 30.516 37.344 30.1C37.0453 29.684 36.896 29.156 36.896 28.516C36.896 27.8547 37.0827 27.2627 37.456 26.74C37.8293 26.2173 38.3467 25.812 39.008 25.524C39.68 25.2253 40.432 25.076 41.264 25.076C42.7893 25.076 44.032 25.4813 44.992 26.292C45.1307 26.4093 45.2267 26.5267 45.28 26.644C45.344 26.7507 45.376 26.8893 45.376 27.06C45.376 27.284 45.3067 27.4813 45.168 27.652C45.04 27.812 44.8853 27.892 44.704 27.892C44.5973 27.892 44.496 27.876 44.4 27.844C44.3147 27.812 44.1973 27.7533 44.048 27.668C43.6107 27.348 43.184 27.1133 42.768 26.964C42.3627 26.804 41.8613 26.724 41.264 26.724C40.5387 26.724 39.9627 26.8733 39.536 27.172C39.12 27.46 38.912 27.8653 38.912 28.388C38.912 28.8253 39.0987 29.1613 39.472 29.396C39.8453 29.6307 40.48 29.8493 41.376 30.052C42.3253 30.2653 43.0933 30.5053 43.68 30.772C44.2773 31.028 44.7307 31.3587 45.04 31.764C45.36 32.1693 45.52 32.676 45.52 33.284C45.52 33.9453 45.3333 34.532 44.96 35.044C44.5973 35.5453 44.08 35.94 43.408 36.228C42.7467 36.5053 41.984 36.644 41.12 36.644ZM48.2351 36.596C47.9471 36.596 47.7071 36.516 47.5151 36.356C47.3338 36.1853 47.2431 35.9453 47.2431 35.636V29.46C47.2431 29.1507 47.3338 28.916 47.5151 28.756C47.7071 28.596 47.9471 28.516 48.2351 28.516C48.5231 28.516 48.7631 28.596 48.9551 28.756C49.1471 28.916 49.2431 29.1507 49.2431 29.46V35.636C49.2431 35.9453 49.1471 36.1853 48.9551 36.356C48.7631 36.516 48.5231 36.596 48.2351 36.596ZM48.2351 27.092C47.8725 27.092 47.5845 26.996 47.3711 26.804C47.1578 26.6013 47.0511 26.34 47.0511 26.02C47.0511 25.7 47.1578 25.444 47.3711 25.252C47.5845 25.06 47.8725 24.964 48.2351 24.964C48.5871 24.964 48.8698 25.06 49.0831 25.252C49.3071 25.444 49.4191 25.7 49.4191 26.02C49.4191 26.34 49.3125 26.6013 49.0991 26.804C48.8858 26.996 48.5978 27.092 48.2351 27.092ZM57.9296 28.516C58.2283 28.516 58.4683 28.6013 58.6496 28.772C58.831 28.9427 58.9216 29.172 58.9216 29.46V35.78C58.9216 37.0067 58.5803 37.9347 57.8976 38.564C57.215 39.1933 56.207 39.508 54.8736 39.508C53.711 39.508 52.7403 39.2893 51.9616 38.852C51.567 38.6173 51.3696 38.3347 51.3696 38.004C51.3696 37.7693 51.423 37.5827 51.5296 37.444C51.647 37.3053 51.7963 37.236 51.9776 37.236C52.0736 37.236 52.191 37.2573 52.3296 37.3C52.4683 37.3533 52.6123 37.412 52.7616 37.476C53.1456 37.636 53.487 37.7587 53.7856 37.844C54.095 37.9293 54.447 37.972 54.8416 37.972C56.239 37.972 56.9376 37.2893 56.9376 35.924V34.9C56.703 35.3373 56.3616 35.6787 55.9136 35.924C55.4656 36.1587 54.9536 36.276 54.3776 36.276C53.695 36.276 53.087 36.116 52.5536 35.796C52.031 35.4653 51.6203 35.0067 51.3216 34.42C51.023 33.8333 50.8736 33.156 50.8736 32.388C50.8736 31.62 51.0176 30.9427 51.3056 30.356C51.6043 29.7587 52.0203 29.3 52.5536 28.98C53.087 28.6493 53.695 28.484 54.3776 28.484C54.9536 28.484 55.4656 28.6067 55.9136 28.852C56.3616 29.0867 56.703 29.4227 56.9376 29.86V29.444C56.9376 29.1667 57.0283 28.9427 57.2096 28.772C57.391 28.6013 57.631 28.516 57.9296 28.516ZM54.9056 34.724C55.5456 34.724 56.0416 34.516 56.3936 34.1C56.7563 33.684 56.9376 33.1133 56.9376 32.388C56.9376 31.652 56.7563 31.076 56.3936 30.66C56.0416 30.244 55.5456 30.036 54.9056 30.036C54.2763 30.036 53.7803 30.244 53.4176 30.66C53.055 31.076 52.8736 31.652 52.8736 32.388C52.8736 33.1133 53.055 33.684 53.4176 34.1C53.7803 34.516 54.2763 34.724 54.9056 34.724ZM65.5371 28.484C66.4758 28.484 67.1745 28.7507 67.6331 29.284C68.0918 29.8173 68.3211 30.6227 68.3211 31.7V35.636C68.3211 35.9347 68.2305 36.1693 68.0491 36.34C67.8785 36.5107 67.6385 36.596 67.3291 36.596C67.0198 36.596 66.7745 36.5107 66.5931 36.34C66.4118 36.1693 66.3211 35.9347 66.3211 35.636V31.812C66.3211 31.204 66.2038 30.7613 65.9691 30.484C65.7451 30.2067 65.3878 30.068 64.8971 30.068C64.3211 30.068 63.8571 30.2493 63.5051 30.612C63.1638 30.9747 62.9931 31.46 62.9931 32.068V35.636C62.9931 35.9347 62.9025 36.1693 62.7211 36.34C62.5398 36.5107 62.2945 36.596 61.9851 36.596C61.6758 36.596 61.4305 36.5107 61.2491 36.34C61.0785 36.1693 60.9931 35.9347 60.9931 35.636V29.444C60.9931 29.1667 61.0838 28.9427 61.2651 28.772C61.4465 28.6013 61.6918 28.516 62.0011 28.516C62.2785 28.516 62.5025 28.6013 62.6731 28.772C62.8545 28.932 62.9451 29.1453 62.9451 29.412V29.844C63.2118 29.4067 63.5691 29.0707 64.0171 28.836C64.4651 28.6013 64.9718 28.484 65.5371 28.484ZM79.5283 36.644C77.9816 36.644 76.8083 36.244 76.0082 35.444C75.2083 34.644 74.8083 33.476 74.8083 31.94V26.164C74.8083 25.8547 74.8989 25.6093 75.0803 25.428C75.2616 25.236 75.5069 25.14 75.8163 25.14C76.1256 25.14 76.3709 25.236 76.5523 25.428C76.7336 25.6093 76.8243 25.8547 76.8243 26.164V32.052C76.8243 33.0227 77.0536 33.7587 77.5123 34.26C77.9709 34.7507 78.6429 34.996 79.5283 34.996C80.4029 34.996 81.0696 34.7453 81.5283 34.244C81.9869 33.7427 82.2163 33.012 82.2163 32.052V26.164C82.2163 25.8547 82.3069 25.6093 82.4883 25.428C82.6696 25.236 82.9149 25.14 83.2243 25.14C83.5336 25.14 83.7789 25.236 83.9603 25.428C84.1416 25.6093 84.2323 25.8547 84.2323 26.164V31.94C84.2323 33.4653 83.8323 34.6333 83.0323 35.444C82.2323 36.244 81.0643 36.644 79.5283 36.644ZM90.9266 28.484C91.5986 28.484 92.196 28.6547 92.7186 28.996C93.252 29.3373 93.6626 29.8227 93.9506 30.452C94.2493 31.0707 94.3986 31.7853 94.3986 32.596C94.3986 33.4067 94.2493 34.116 93.9506 34.724C93.6626 35.332 93.2573 35.8013 92.7346 36.132C92.212 36.4627 91.6093 36.628 90.9266 36.628C90.372 36.628 89.876 36.5107 89.4386 36.276C89.0013 36.0413 88.6653 35.716 88.4306 35.3V38.564C88.4306 38.8413 88.34 39.06 88.1586 39.22C87.9773 39.38 87.7373 39.46 87.4386 39.46C87.14 39.46 86.8946 39.3747 86.7026 39.204C86.5213 39.0333 86.4306 38.8093 86.4306 38.532V29.46C86.4306 29.172 86.516 28.9427 86.6866 28.772C86.868 28.6013 87.108 28.516 87.4066 28.516C87.7053 28.516 87.9453 28.6013 88.1266 28.772C88.308 28.9427 88.3986 29.172 88.3986 29.46V29.86C88.6333 29.4227 88.9693 29.0867 89.4066 28.852C89.8546 28.6067 90.3613 28.484 90.9266 28.484ZM90.3986 35.076C91.028 35.076 91.5186 34.8627 91.8706 34.436C92.2226 33.9987 92.3986 33.3853 92.3986 32.596C92.3986 31.7853 92.2226 31.156 91.8706 30.708C91.5186 30.26 91.028 30.036 90.3986 30.036C89.7586 30.036 89.2626 30.2547 88.9106 30.692C88.5693 31.1293 88.3986 31.7533 88.3986 32.564C88.3986 33.364 88.5693 33.9827 88.9106 34.42C89.2626 34.8573 89.7586 35.076 90.3986 35.076Z" fill="url(#paint0_linear_501_69)"/>
</g>
<defs>
<filter id="filter0_d_501_69" x="0" y="0.5" width="131" height="76" filterUnits="userSpaceOnUse" color-interpolation-filters="sRGB">
<feFlood flood-opacity="0" result="BackgroundImageFix"/>
<feColorMatrix in="SourceAlpha" type="matrix" values="0 0 0 0 0 0 0 0 0 0 0 0 0 0 0 0 0 0 127 0" result="hardAlpha"/>
<feOffset dy="7"/>
<feGaussianBlur stdDeviation="10"/>
<feColorMatrix type="matrix" values="0 0 0 0 0.191667 0 0 0 0 0.2725 0 0 0 0 1 0 0 0 0.13 0"/>
<feBlend mode="normal" in2="BackgroundImageFix" result="effect1_dropShadow_501_69"/>
<feBlend mode="normal" in="SourceGraphic" in2="effect1_dropShadow_501_69" result="shape"/>
</filter>
<linearGradient id="paint0_linear_501_69" x1="36" y1="20.5" x2="72.952" y2="62.0895" gradientUnits="userSpaceOnUse">
<stop stop-color="#C381DB"/>
<stop offset="1" stop-color="#4E92F9"/>
</linearGradient>
</defs>
</svg>
