<svg width="9" height="5" viewBox="0 0 9 5" fill="none" xmlns="http://www.w3.org/2000/svg">
<path d="M8.13281 0.445702C8.03124 0.344155 7.89348 0.287109 7.74985 0.287109C7.60622 0.287109 7.46847 0.344155 7.3669 0.445702L4.88281 2.92979C4.77982 3.02863 4.6426 3.08383 4.49985 3.08383C4.3571 3.08383 4.21988 3.02863 4.1169 2.92979L1.63281 0.445702C1.53065 0.347033 1.39383 0.292436 1.2518 0.29367C1.10978 0.294904 0.973924 0.351871 0.873494 0.4523C0.773065 0.552729 0.716098 0.688586 0.714864 0.83061C0.71363 0.972633 0.768227 1.10946 0.866896 1.21162L3.35044 3.6957C3.50134 3.84663 3.68049 3.96635 3.87766 4.04803C4.07483 4.12971 4.28616 4.17175 4.49958 4.17175C4.713 4.17175 4.92434 4.12971 5.12151 4.04803C5.31868 3.96635 5.49783 3.84663 5.64873 3.6957L8.13281 1.21162C8.23436 1.11004 8.2914 0.972291 8.2914 0.82866C8.2914 0.685029 8.23436 0.547279 8.13281 0.445702Z" fill="#485466"/>
</svg>
